<svg xmlns="http://www.w3.org/2000/svg" style="max-height: 500px" viewBox="4.152542372881356 1.782 71.57525224911775 42.87492" version="1.1" id="svg1" width="71.57525224911775" height="42.87492">
  
  <defs id="defs1"/>
  <g id="layer1">
    <path id="text1" style="font-style:normal;font-variant:normal;font-weight:normal;font-stretch:normal;font-size:61.3833px;font-family:Cormorant;-inkscape-font-specification:Cormorant;fill:#000000;fill-opacity:1;stroke-width:0.35269" d="M 21.02559 3.6168335 C 19.184093 3.6168335 17.404078 3.9650207 15.685347 4.6606974 C 14.007539 5.3563741 12.636396 6.4204751 11.57242 7.8527507 C 10.508444 9.2441041 9.976652 11.003546 9.976652 13.131498 C 9.976652 15.05484 10.386041 16.671306 11.204484 17.980815 C 11.317075 18.14702 11.445199 18.302886 11.566219 18.463472 L 16.52974 18.463472 C 15.684507 17.761052 14.949867 16.98811 14.335042 16.139067 C 13.516599 14.911402 13.10721 13.438429 13.10721 11.719698 C 13.10721 10.532955 13.332478 9.3870801 13.782621 8.2821818 C 14.232765 7.1772835 14.969252 6.2566754 15.992306 5.5200765 C 17.056282 4.7834776 18.468053 4.4152344 20.227706 4.4152344 C 21.700904 4.4152344 22.949126 4.6811304 23.97218 5.2131185 C 25.036156 5.7041844 25.895563 6.3588965 26.550317 7.1773397 C 27.245994 7.9957829 27.757213 8.8958182 28.084591 9.87795 C 28.45289 10.81916 28.678157 11.740285 28.760002 12.640572 C 28.800924 12.804261 28.923844 12.886035 29.128455 12.886035 C 29.373988 12.886035 29.496391 12.804261 29.496391 12.640572 L 28.94397 6.1339925 C 28.94397 5.9293817 28.862195 5.7452601 28.698507 5.5815715 C 28.57574 5.3769607 28.35099 5.2128951 28.023612 5.0901286 C 26.755026 4.5581405 25.526859 4.1898973 24.340116 3.9852865 C 23.194296 3.7397535 22.089566 3.6168335 21.02559 3.6168335 z M 36.678381 4.2922445 C 36.596537 4.2922445 36.555908 4.4151645 36.555908 4.6606974 C 36.555908 4.9062304 36.596537 5.0286336 36.678381 5.0286336 C 38.233423 5.0286336 39.399872 5.1515536 40.177393 5.3970866 C 40.954914 5.6016974 41.466133 6.0110862 41.711666 6.6249186 C 41.998121 7.1978289 42.141614 8.0778082 42.141614 9.2645508 L 42.141614 18.463472 L 45.394645 18.463472 L 45.394645 9.3870239 C 45.394645 8.2002813 45.517565 7.300246 45.763098 6.6864136 C 46.049553 6.0725812 46.581862 5.6426195 47.359383 5.3970866 C 48.136904 5.1515536 49.302836 5.0286336 50.857878 5.0286336 C 50.939722 5.0286336 50.980868 4.9062304 50.980868 4.6606974 C 50.980868 4.4151645 50.939722 4.2922445 50.857878 4.2922445 C 49.916668 4.2922445 48.852567 4.3333901 47.665824 4.4152344 C 46.479082 4.4561565 45.169658 4.4762126 43.737382 4.4762126 C 42.427873 4.4762126 41.159594 4.4561565 39.93193 4.4152344 C 38.745187 4.3333901 37.660513 4.2922445 36.678381 4.2922445 z M 57.425952 4.2922445 C 57.344108 4.2922445 57.303479 4.4151645 57.303479 4.6606974 C 57.303479 4.9062304 57.344108 5.0286336 57.425952 5.0286336 C 59.594827 5.0286336 60.761275 5.2950464 60.924963 5.8270345 C 61.129574 6.3181004 60.454289 7.3410558 58.899247 8.8960978 L 49.294149 18.463472 L 50.853743 18.463472 L 60.311047 9.2645508 C 62.029778 7.5867422 63.809793 6.4609229 65.65129 5.8880127 C 67.492787 5.3151025 69.109253 5.0286336 70.500606 5.0286336 C 70.623373 5.0286336 70.684574 4.9062304 70.684574 4.6606974 C 70.684574 4.4151645 70.623373 4.2922445 70.500606 4.2922445 C 69.682163 4.2922445 68.822757 4.3333901 67.922469 4.4152344 C 67.063104 4.4561565 65.8766 4.4762126 64.36248 4.4762126 C 62.725593 4.4762126 61.395596 4.4561565 60.372542 4.4152344 C 59.39041 4.3333901 58.408084 4.2922445 57.425952 4.2922445 z M 23.905001 27.462923 C 24.847166 28.25533 25.648846 29.165219 26.304854 30.19609 C 27.205142 31.505599 27.65516 33.162693 27.65516 35.167879 C 27.65516 37.009376 27.266343 38.462293 26.488822 39.52627 C 25.752224 40.590246 24.79047 41.367878 23.603727 41.858944 C 22.416985 42.309087 21.189335 42.533838 19.920748 42.533838 C 18.242939 42.533838 16.769966 42.227313 15.501379 41.613481 C 14.273715 40.958726 13.230186 40.119892 12.370821 39.096838 C 11.552378 38.073784 10.897666 36.947965 10.4066 35.7203 C 9.915534 34.492636 9.5879196 33.264986 9.424231 32.037321 C 9.3833088 31.873632 9.239816 31.812431 8.994283 31.853353 C 8.7896722 31.853353 8.7078978 31.9557 8.74882 32.160311 L 9.669694 40.140186 C 9.7106162 40.426641 9.7517618 40.671964 9.7926839 40.876575 C 9.8745282 41.040263 10.017504 41.183756 10.222115 41.306523 C 11.286091 41.838511 12.268418 42.267956 13.168705 42.595333 C 14.109915 42.881788 15.00995 43.086482 15.869316 43.209249 C 16.769603 43.332015 17.670155 43.393217 18.570443 43.393217 C 21.35315 43.393217 23.664956 42.922627 25.506453 41.981417 C 27.347951 41.040207 28.719093 39.792501 29.619381 38.237459 C 30.56059 36.641495 31.031181 34.902109 31.031181 33.01969 C 31.031181 31.055426 30.56059 29.418388 29.619381 28.108879 C 29.470113 27.884978 29.303623 27.675575 29.140857 27.462923 L 23.905001 27.462923 z M 42.141614 27.462923 L 42.141614 37.685038 C 42.141614 38.871781 41.998121 39.771816 41.711666 40.385649 C 41.466133 40.999481 40.934341 41.40887 40.115898 41.613481 C 39.338377 41.818091 38.171928 41.920439 36.616886 41.920439 C 36.535042 41.920439 36.494413 42.042842 36.494413 42.288375 C 36.494413 42.533908 36.535042 42.656828 36.616886 42.656828 C 37.599018 42.656828 38.704265 42.636255 39.93193 42.595333 C 41.159594 42.554411 42.427873 42.533838 43.737382 42.533838 C 45.169658 42.533838 46.459026 42.554411 47.604846 42.595333 C 48.791589 42.636255 49.875746 42.656828 50.857878 42.656828 C 50.939722 42.656828 50.980868 42.533908 50.980868 42.288375 C 50.980868 42.042842 50.939722 41.920439 50.857878 41.920439 C 49.302836 41.920439 48.116331 41.818091 47.297888 41.613481 C 46.520367 41.40887 46.008631 40.999481 45.763098 40.385649 C 45.517565 39.771816 45.394645 38.871781 45.394645 37.685038 L 45.394645 27.462923 L 42.141614 27.462923 z M 52.244356 27.462923 L 57.303479 33.756079 C 58.817599 35.638498 59.98353 37.17319 60.801973 38.359932 C 61.620417 39.505753 62.2345 40.385732 62.643722 40.999565 C 63.052943 41.613397 63.380041 42.042842 63.625574 42.288375 C 63.912029 42.492986 64.260216 42.615906 64.669438 42.656828 L 66.510669 42.656828 L 68.965816 42.656828 L 73.385701 42.656828 C 73.508468 42.656828 73.56967 42.533908 73.56967 42.288375 C 73.56967 42.042842 73.508468 41.920439 73.385701 41.920439 L 71.236995 41.920439 C 70.623163 41.879516 69.968451 41.715451 69.272774 41.428996 C 68.577098 41.101618 67.779409 40.549254 66.879122 39.771733 C 65.978834 38.994212 64.853532 37.868909 63.503101 36.395711 C 62.193591 34.881591 60.577126 32.917455 58.653784 30.503048 L 56.235327 27.462923 L 52.244356 27.462923 z"/>
    <text xml:space="preserve" style="font-style:normal;font-variant:normal;font-weight:bold;font-stretch:normal;font-size:4.93889px;font-family:Constantia;-inkscape-font-specification:'Constantia Bold';fill:#000000;fill-opacity:1;stroke-width:0.35269" x="7.2548175" y="24.591089" id="text2"><tspan id="tspan2" style="font-style:normal;font-variant:normal;font-weight:bold;font-stretch:normal;font-size:4.93889px;font-family:Constantia;-inkscape-font-specification:'Constantia Bold';fill:#000000;fill-opacity:1;stroke-width:0.35269" x="7.2548175" y="24.591089">S Y L V I A  K O Z Ł O W S K A</tspan></text>
    <text xml:space="preserve" style="font-style:normal;font-variant:normal;font-weight:normal;font-stretch:normal;font-size:4.23333px;font-family:PMingLiU-ExtB;-inkscape-font-specification:PMingLiU-ExtB;fill:#3b3b3b;fill-opacity:1;stroke-width:0.35269" x="12.534135" y="51.927132" id="text3"><tspan id="tspan3" style="font-size:4.23333px;fill:#3b3b3b;fill-opacity:1;stroke-width:0.35269" x="12.534135" y="51.927132">M A K E  U P  &amp;  S T Y L I S T A</tspan></text>
  </g>
</svg>